<svg xmlns="http://www.w3.org/2000/svg" width="800" height="600" viewBox="0 0 800 600" role="img" aria-label="Placeholder client DM screenshot">
  <rect width="800" height="600" fill="#111114"/>
  <rect x="40" y="40" width="720" height="60" rx="30" fill="#1A1A1F"/>
  <circle cx="80" cy="70" r="20" fill="#26262D"/>
  <rect x="118" y="60" width="160" height="12" rx="6" fill="#2f2f37"/>
  <rect x="118" y="80" width="90" height="8" rx="4" fill="#26262D"/>
  <rect x="60" y="150" width="480" height="90" rx="18" fill="#1A1A1F"/>
  <rect x="84" y="178" width="420" height="10" rx="5" fill="#2f2f37"/>
  <rect x="84" y="200" width="320" height="10" rx="5" fill="#26262D"/>
  <rect x="260" y="280" width="480" height="110" rx="18" fill="#2E6BFF"/>
  <rect x="284" y="308" width="420" height="10" rx="5" fill="#ffffff" opacity="0.85"/>
  <rect x="284" y="330" width="380" height="10" rx="5" fill="#ffffff" opacity="0.65"/>
  <rect x="284" y="352" width="260" height="10" rx="5" fill="#ffffff" opacity="0.5"/>
  <text x="400" y="470" text-anchor="middle" font-family="system-ui, sans-serif" font-size="24" font-weight="600" fill="#6b7280">Client DM placeholder</text>
  <text x="400" y="504" text-anchor="middle" font-family="system-ui, sans-serif" font-size="17" fill="#4b5563">Replace with a real (name-redacted) DM screenshot</text>
</svg>
